<svg width="20" height="20" viewBox="0 0 20 20" fill="none" xmlns="http://www.w3.org/2000/svg">
<path d="M18.2174 14.0994V16.5994C18.2183 16.8315 18.1708 17.0612 18.0778 17.2739C17.9848 17.4865 17.8484 17.6774 17.6774 17.8343C17.5064 17.9912 17.3045 18.1107 17.0846 18.185C16.8648 18.2594 16.6318 18.287 16.4007 18.2661C13.8364 17.9875 11.3732 17.1112 9.20902 15.7078C7.19554 14.4283 5.48846 12.7212 4.20902 10.7078C2.80067 8.53377 1.92422 6.05859 1.65068 3.48276C1.62986 3.25232 1.65725 3.02006 1.7311 2.80078C1.80496 2.5815 1.92366 2.38 2.07966 2.20911C2.23565 2.03822 2.42552 1.90169 2.63718 1.8082C2.84883 1.71471 3.07764 1.66631 3.30902 1.6661H5.80902C6.21344 1.66212 6.60551 1.80533 6.91215 2.06904C7.21879 2.33275 7.41908 2.69897 7.47568 3.09943C7.5812 3.89949 7.77689 4.68504 8.05902 5.4411C8.17114 5.73937 8.1954 6.06353 8.12894 6.37516C8.06248 6.6868 7.90807 6.97286 7.68402 7.19943L6.62568 8.25776C7.81198 10.3441 9.5394 12.0715 11.6257 13.2578L12.684 12.1994C12.9106 11.9754 13.1966 11.821 13.5083 11.7545C13.8199 11.688 14.1441 11.7123 14.4424 11.8244C15.1984 12.1066 15.984 12.3022 16.784 12.4078C17.1888 12.4649 17.5585 12.6688 17.8228 12.9807C18.0871 13.2926 18.2275 13.6907 18.2174 14.0994Z" stroke="black" stroke-width="2" stroke-linecap="round" stroke-linejoin="round"/>
</svg>
