<svg xmlns="http://www.w3.org/2000/svg" fill="none" viewBox="19.5668 14.300259067357514 314.688 100.41450777202073" style="max-height: 500px" width="314.688" height="100.41450777202073">
<rect fill="#F5F5F5" height="136" width="352"/>
<g clip-path="url(#clip0_0_1)">
<rect fill="white" transform="translate(-100 -761)" height="3727" width="1440"/>
<rect fill="white" transform="translate(-100 -337)" height="582" width="1440"/>
<g filter="url(#filter0_d_0_1)">
<rect fill="white" rx="8" height="96" width="96" y="17" x="20"/>
<g clip-path="url(#clip1_0_1)">
<path stroke-miterlimit="10" stroke-width="1.5" stroke="black" d="M64.3734 58.8377L65.3391 61.815L63.744 63.4102C63.744 63.4102 61.7566 60.5694 61.7575 60.5689"/>
<path stroke-miterlimit="10" stroke-width="1.5" stroke="black" d="M59.9313 58.7422C59.9307 58.7431 57.09 56.7558 57.09 56.7558L58.6851 55.1606L61.6589 56.1255"/>
<path stroke-miterlimit="10" stroke-width="1.5" stroke="black" d="M59.8776 61.7684C64.6824 58.856 69.1191 55.3758 73.092 51.4029L77.498 46.997C78.846 45.6489 79.9489 42.7578 78.846 41.6549C77.7431 40.552 74.852 41.6549 73.5039 43.0029L69.098 47.4089C65.1251 51.3817 61.6449 55.8185 58.7325 60.6232C58.2805 61.3689 59.1319 62.2203 59.8776 61.7684Z"/>
<path stroke-miterlimit="10" stroke-width="1.5" stroke="black" d="M70.6856 53.7794L74.968 61.5078L75.9666 60.5093L74.806 49.6877"/>
<path stroke-miterlimit="10" stroke-width="1.5" stroke="black" d="M70.812 45.694L59.9904 44.5335L58.9919 45.532L66.7203 49.8145"/>
<path stroke-miterlimit="10" stroke-width="1.5" stroke="black" d="M75.5933 57.9492L77.4358 56.1067"/>
<path stroke-miterlimit="10" stroke-width="1.5" stroke="black" d="M64.3928 43.064L62.5916 44.8652"/>
<path stroke-miterlimit="10" stroke-width="1.5" stroke="black" d="M76.9211 52.6283L75.2721 54.2773"/>
<path stroke-miterlimit="10" stroke-width="1.5" stroke="black" d="M66.2233 45.2285L67.8723 43.5795"/>
</g>
<path fill="black" d="M44.3868 86.5L48.0968 76.7H49.7768L53.4868 86.5H51.6948L50.8688 84.288H46.8928L46.0668 86.5H44.3868ZM47.4388 82.832H50.3228L48.8948 78.8L47.4388 82.832ZM54.8124 86.5V79.08H56.3524V86.5H54.8124ZM55.5824 78.24C55.293 78.24 55.055 78.1513 54.8684 77.974C54.691 77.7873 54.6024 77.5493 54.6024 77.26C54.6024 76.9707 54.691 76.7373 54.8684 76.56C55.055 76.3733 55.293 76.28 55.5824 76.28C55.8717 76.28 56.105 76.3733 56.2824 76.56C56.469 76.7373 56.5624 76.9707 56.5624 77.26C56.5624 77.5493 56.469 77.7873 56.2824 77.974C56.105 78.1513 55.8717 78.24 55.5824 78.24ZM58.4458 86.5V79.08H59.8738V80.34C59.9765 80.0787 60.1165 79.8453 60.2938 79.64C60.4805 79.4253 60.7045 79.2527 60.9658 79.122C61.2365 78.9913 61.5398 78.926 61.8758 78.926C62.1092 78.926 62.2818 78.9353 62.3938 78.954C62.5152 78.9727 62.5992 78.9913 62.6458 79.01V80.41C62.4872 80.3633 62.3425 80.3307 62.2118 80.312C62.0812 80.284 61.9225 80.27 61.7358 80.27C61.3345 80.27 61.0032 80.3633 60.7418 80.55C60.4805 80.7273 60.2892 80.9607 60.1678 81.25C60.0465 81.53 59.9858 81.8333 59.9858 82.16V86.5H58.4458ZM69.9909 86.5V78.156H66.7009V76.7H74.9609V78.156H71.6709V86.5H69.9909ZM74.9614 86.5V79.08H76.3894V80.34C76.4921 80.0787 76.6321 79.8453 76.8094 79.64C76.9961 79.4253 77.2201 79.2527 77.4814 79.122C77.7521 78.9913 78.0554 78.926 78.3914 78.926C78.6248 78.926 78.7974 78.9353 78.9094 78.954C79.0308 78.9727 79.1148 78.9913 79.1614 79.01V80.41C79.0028 80.3633 78.8581 80.3307 78.7274 80.312C78.5968 80.284 78.4381 80.27 78.2514 80.27C77.8501 80.27 77.5188 80.3633 77.2574 80.55C76.9961 80.7273 76.8048 80.9607 76.6834 81.25C76.5621 81.53 76.5014 81.8333 76.5014 82.16V86.5H74.9614ZM80.5565 86.5V79.08H82.0965V86.5H80.5565ZM81.3265 78.24C81.0372 78.24 80.7992 78.1513 80.6125 77.974C80.4352 77.7873 80.3465 77.5493 80.3465 77.26C80.3465 76.9707 80.4352 76.7373 80.6125 76.56C80.7992 76.3733 81.0372 76.28 81.3265 76.28C81.6159 76.28 81.8492 76.3733 82.0265 76.56C82.2132 76.7373 82.3065 76.9707 82.3065 77.26C82.3065 77.5493 82.2132 77.7873 82.0265 77.974C81.8492 78.1513 81.6159 78.24 81.3265 78.24ZM84.19 89.3V79.08H85.618V80.326C85.842 79.8967 86.1733 79.556 86.612 79.304C87.06 79.052 87.564 78.926 88.124 78.926C89.0946 78.926 89.86 79.2293 90.42 79.836C90.98 80.4427 91.26 81.3573 91.26 82.58V82.86C91.26 83.7 91.1293 84.4047 90.868 84.974C90.6066 85.534 90.2426 85.954 89.776 86.234C89.3093 86.514 88.7586 86.654 88.124 86.654C87.592 86.654 87.1066 86.5373 86.668 86.304C86.2293 86.0707 85.9166 85.744 85.73 85.324V89.3H84.19ZM87.76 85.31C88.3386 85.31 88.8053 85.1093 89.16 84.708C89.5146 84.3067 89.692 83.6907 89.692 82.86V82.58C89.692 81.796 89.5193 81.2173 89.174 80.844C88.8286 80.4613 88.3573 80.27 87.76 80.27C87.4146 80.27 87.0833 80.3447 86.766 80.494C86.458 80.6433 86.206 80.8627 86.01 81.152C85.8233 81.4413 85.73 81.8007 85.73 82.23V83.21C85.73 83.6767 85.8233 84.0687 86.01 84.386C86.206 84.694 86.458 84.9273 86.766 85.086C87.074 85.2353 87.4053 85.31 87.76 85.31Z" opacity="0.6"/>
</g>
<g filter="url(#filter1_d_0_1)">
<rect fill="white" rx="8" height="96" width="96" y="17" x="128"/>
<g clip-path="url(#clip2_0_1)">
<path fill="black" d="M169.25 55.5H170.75C171.579 55.5 172.25 54.828 172.25 53.9999V52.5C172.25 51.6712 171.579 51 170.75 51H169.25C168.421 51 167.75 51.6712 167.75 52.5V53.9999C167.75 54.828 168.421 55.5 169.25 55.5ZM169.25 52.5H170.75V53.9999H169.25V52.5ZM181.25 61.4999H182.75C183.579 61.4999 184.25 60.8287 184.25 60V58.5C184.25 57.6713 183.579 57 182.75 57H181.25C180.422 57 179.75 57.6713 179.75 58.5V60C179.75 60.8287 180.421 61.4999 181.25 61.4999ZM181.25 58.5H182.75V60H181.25V58.5ZM181.25 55.5H182.75C183.579 55.5 184.25 54.828 184.25 53.9999V52.5C184.25 51.6712 183.579 51 182.75 51H181.25C180.422 51 179.75 51.6712 179.75 52.5V53.9999C179.75 54.828 180.421 55.5 181.25 55.5ZM181.25 52.5H182.75V53.9999H181.25V52.5ZM184.25 42H181.25V41.25C181.25 40.836 180.914 40.5 180.5 40.5C180.086 40.5 179.75 40.836 179.75 41.25V42H172.25V41.25C172.25 40.836 171.914 40.5 171.5 40.5C171.086 40.5 170.75 40.836 170.75 41.25V42H167.75C166.093 42 164.75 43.3433 164.75 45V61.4999C164.75 63.1567 166.093 64.5 167.75 64.5H184.25C185.907 64.5 187.25 63.1567 187.25 61.4999V45C187.25 43.3432 185.907 42 184.25 42ZM185.75 61.4999C185.75 62.3287 185.079 63 184.25 63H167.75C166.921 63 166.25 62.3279 166.25 61.4999V48H185.75V61.4999H185.75ZM185.75 46.5H166.25V45C166.25 44.1712 166.921 43.5 167.75 43.5H170.75V44.25C170.75 44.664 171.086 45 171.5 45C171.914 45 172.25 44.664 172.25 44.25V43.5H179.75V44.25C179.75 44.664 180.086 45 180.5 45C180.914 45 181.25 44.664 181.25 44.25V43.5H184.25C185.079 43.5 185.75 44.1712 185.75 45V46.5ZM175.25 61.4999H176.75C177.579 61.4999 178.25 60.8287 178.25 60V58.5C178.25 57.6713 177.579 57 176.75 57H175.25C174.422 57 173.75 57.6713 173.75 58.5V60C173.75 60.8287 174.421 61.4999 175.25 61.4999ZM175.25 58.5H176.75V60H175.25V58.5ZM175.25 55.5H176.75C177.579 55.5 178.25 54.828 178.25 53.9999V52.5C178.25 51.6712 177.579 51 176.75 51H175.25C174.422 51 173.75 51.6712 173.75 52.5V53.9999C173.75 54.828 174.421 55.5 175.25 55.5ZM175.25 52.5H176.75V53.9999H175.25V52.5ZM169.25 61.4999H170.75C171.579 61.4999 172.25 60.8287 172.25 60V58.5C172.25 57.6713 171.579 57 170.75 57H169.25C168.421 57 167.75 57.6713 167.75 58.5V60C167.75 60.8287 168.421 61.4999 169.25 61.4999ZM169.25 58.5H170.75V60H169.25V58.5Z"/>
</g>
<path fill="black" d="M157.652 86.654C156.868 86.654 156.205 86.5373 155.664 86.304C155.122 86.0613 154.712 85.73 154.432 85.31C154.152 84.89 154.012 84.4093 154.012 83.868C154.012 83.308 154.184 82.8133 154.53 82.384C154.884 81.9453 155.398 81.6327 156.07 81.446C155.575 81.278 155.155 80.998 154.81 80.606C154.464 80.214 154.292 79.738 154.292 79.178C154.292 78.674 154.422 78.226 154.684 77.834C154.945 77.4327 155.323 77.12 155.818 76.896C156.322 76.6627 156.933 76.546 157.652 76.546C158.38 76.546 158.991 76.6627 159.486 76.896C159.99 77.12 160.368 77.4327 160.62 77.834C160.881 78.226 161.012 78.674 161.012 79.178C161.012 79.738 160.844 80.2093 160.508 80.592C160.172 80.9747 159.752 81.2593 159.248 81.446C159.929 81.6607 160.438 81.964 160.774 82.356C161.119 82.748 161.292 83.252 161.292 83.868C161.292 84.4093 161.152 84.89 160.872 85.31C160.592 85.73 160.181 86.0613 159.64 86.304C159.098 86.5373 158.436 86.654 157.652 86.654ZM157.652 85.17C158.1 85.17 158.468 85.1093 158.758 84.988C159.047 84.8667 159.262 84.6987 159.402 84.484C159.542 84.2693 159.612 84.022 159.612 83.742C159.612 83.266 159.425 82.888 159.052 82.608C158.678 82.3187 158.212 82.1367 157.652 82.062C157.092 82.1367 156.625 82.3187 156.252 82.608C155.878 82.888 155.692 83.266 155.692 83.742C155.692 84.022 155.766 84.2693 155.916 84.484C156.065 84.6987 156.284 84.8667 156.574 84.988C156.863 85.1093 157.222 85.17 157.652 85.17ZM157.652 80.858C158.146 80.7833 158.548 80.6247 158.856 80.382C159.173 80.1393 159.332 79.78 159.332 79.304C159.332 78.884 159.178 78.5667 158.87 78.352C158.571 78.1373 158.165 78.03 157.652 78.03C157.138 78.03 156.728 78.1373 156.42 78.352C156.121 78.5573 155.972 78.8747 155.972 79.304C155.972 79.78 156.13 80.1393 156.448 80.382C156.765 80.6247 157.166 80.7833 157.652 80.858ZM166.753 86.5V76.7H169.903C170.892 76.7 171.737 76.8773 172.437 77.232C173.137 77.5773 173.669 78.1 174.033 78.8C174.406 79.4907 174.593 80.354 174.593 81.39V81.67C174.593 82.7153 174.402 83.5973 174.019 84.316C173.636 85.0347 173.081 85.5807 172.353 85.954C171.634 86.318 170.771 86.5 169.763 86.5H166.753ZM168.433 85.044H169.623C170.267 85.044 170.827 84.9367 171.303 84.722C171.788 84.498 172.162 84.1387 172.423 83.644C172.694 83.1493 172.829 82.4913 172.829 81.67V81.39C172.829 80.6247 172.694 80.004 172.423 79.528C172.152 79.052 171.784 78.7067 171.317 78.492C170.86 78.268 170.342 78.156 169.763 78.156H168.433V85.044ZM178.514 86.654C177.982 86.654 177.525 86.556 177.142 86.36C176.769 86.1547 176.484 85.8747 176.288 85.52C176.092 85.1653 175.994 84.7687 175.994 84.33C175.994 83.5927 176.214 83.0467 176.652 82.692C177.091 82.328 177.735 82.146 178.584 82.146H180.894V81.74C180.894 81.18 180.768 80.7973 180.516 80.592C180.274 80.3773 179.886 80.27 179.354 80.27C178.878 80.27 178.528 80.3447 178.304 80.494C178.08 80.6433 177.95 80.8487 177.912 81.11H176.414C176.442 80.6807 176.578 80.3027 176.82 79.976C177.063 79.6493 177.404 79.3927 177.842 79.206C178.29 79.0193 178.818 78.926 179.424 78.926C180.031 78.926 180.558 79.0193 181.006 79.206C181.464 79.3927 181.814 79.6867 182.056 80.088C182.308 80.48 182.434 81.0027 182.434 81.656V84.61C182.434 85.002 182.439 85.3473 182.448 85.646C182.458 85.9353 182.481 86.22 182.518 86.5H181.118C181.09 86.2853 181.067 86.1033 181.048 85.954C181.039 85.8047 181.034 85.618 181.034 85.394C180.857 85.7393 180.549 86.038 180.11 86.29C179.681 86.5327 179.149 86.654 178.514 86.654ZM178.934 85.31C179.289 85.31 179.611 85.2493 179.9 85.128C180.199 85.0067 180.437 84.8247 180.614 84.582C180.801 84.3393 180.894 84.0453 180.894 83.7V83.294H178.864C178.472 83.294 178.155 83.378 177.912 83.546C177.679 83.714 177.562 83.9613 177.562 84.288C177.562 84.596 177.67 84.8433 177.884 85.03C178.108 85.2167 178.458 85.31 178.934 85.31ZM185.314 89.454C185.174 89.454 185.034 89.44 184.894 89.412V88.068C185.034 88.096 185.174 88.11 185.314 88.11C185.519 88.11 185.687 88.0587 185.818 87.956C185.948 87.8627 186.07 87.6993 186.182 87.466C186.294 87.2327 186.424 86.9107 186.574 86.5L183.424 79.08H185.104L187.372 84.82L189.416 79.08H190.984L188.114 86.5C187.843 87.1907 187.586 87.7553 187.344 88.194C187.101 88.6327 186.826 88.95 186.518 89.146C186.21 89.3513 185.808 89.454 185.314 89.454ZM194.908 86.654C194.367 86.654 193.9 86.5933 193.508 86.472C193.116 86.3507 192.789 86.1873 192.528 85.982C192.276 85.7673 192.08 85.5247 191.94 85.254C191.809 84.9833 191.725 84.6987 191.688 84.4H193.228C193.293 84.6613 193.452 84.8807 193.704 85.058C193.956 85.226 194.357 85.31 194.908 85.31C195.524 85.31 195.958 85.226 196.21 85.058C196.462 84.89 196.588 84.6707 196.588 84.4C196.588 84.2413 196.527 84.092 196.406 83.952C196.294 83.812 196.098 83.6907 195.818 83.588C195.547 83.476 195.169 83.392 194.684 83.336C194.264 83.28 193.881 83.2007 193.536 83.098C193.191 82.986 192.897 82.8413 192.654 82.664C192.411 82.4867 192.225 82.272 192.094 82.02C191.963 81.7587 191.898 81.4553 191.898 81.11C191.898 80.7087 192.005 80.3447 192.22 80.018C192.444 79.6913 192.78 79.43 193.228 79.234C193.676 79.0287 194.236 78.926 194.908 78.926C195.561 78.926 196.093 79.0333 196.504 79.248C196.924 79.4533 197.241 79.7287 197.456 80.074C197.671 80.41 197.801 80.7787 197.848 81.18H196.308C196.233 80.8907 196.079 80.6667 195.846 80.508C195.622 80.3493 195.309 80.27 194.908 80.27C194.357 80.27 193.975 80.354 193.76 80.522C193.545 80.69 193.438 80.886 193.438 81.11C193.438 81.3527 193.555 81.5627 193.788 81.74C194.031 81.908 194.507 82.0293 195.216 82.104C195.655 82.16 196.051 82.244 196.406 82.356C196.761 82.468 197.064 82.6173 197.316 82.804C197.577 82.9813 197.778 83.2007 197.918 83.462C198.058 83.7233 198.128 84.036 198.128 84.4C198.128 84.82 198.007 85.2027 197.764 85.548C197.531 85.884 197.176 86.1547 196.7 86.36C196.224 86.556 195.627 86.654 194.908 86.654Z" opacity="0.6"/>
</g>
<g filter="url(#filter2_d_0_1)">
<rect fill="white" rx="8" height="96" width="96" y="17" x="236"/>
<g clip-path="url(#clip3_0_1)">
<path fill="black" d="M295.724 54.9504C295.684 54.8335 293.043 47.8844 293.031 47.8549C292.668 46.9197 291.94 46.1887 291.049 45.8004C291.039 45.7742 290.69 44.8693 290.679 44.8436C290.273 43.9277 289.358 43.3359 288.348 43.3359C287.216 43.3359 286.21 44.0956 285.902 45.1832C285.884 45.2456 285.875 45.3102 285.875 45.375V48.5391H282.125V45.375C282.125 45.3102 282.116 45.2456 282.098 45.1832C281.79 44.0956 280.784 43.3359 279.652 43.3359C278.535 43.3359 277.621 44.0642 277.308 44.8754L276.951 45.8005C276.018 46.2073 275.305 46.9689 274.959 47.8803C272.097 55.413 272.318 54.8281 272.276 54.9503C272.093 55.4805 272 56.0362 272 56.6016C272 59.393 274.271 61.6641 277.062 61.6641C279.567 61.6641 281.651 59.8365 282.054 57.4453H285.946C286.349 59.8365 288.434 61.6641 290.938 61.6641C293.729 61.6641 296 59.393 296 56.6016C296 56.0361 295.907 55.4805 295.724 54.9504ZM291.726 48.3797C291.729 48.3876 291.732 48.3954 291.735 48.4031L293.113 52.0297C291.169 51.102 288.812 51.5038 287.281 53.1037V49.1953C287.281 47.9288 288.312 46.8984 289.578 46.8984C290.526 46.8984 291.39 47.4938 291.726 48.3797ZM285.875 54.0703H282.125V49.9453H285.875V54.0703ZM282.125 55.4766H285.875V56.0391H282.125V55.4766ZM288.348 44.7422C288.791 44.7422 289.228 44.988 289.424 45.4961C288.616 45.5294 287.875 45.8225 287.281 46.2938V45.4848C287.444 45.0435 287.871 44.7422 288.348 44.7422ZM279.652 44.7422C280.129 44.7422 280.556 45.0435 280.719 45.4849V46.2938C280.125 45.8225 279.383 45.5294 278.576 45.4961C278.769 44.997 279.198 44.7422 279.652 44.7422ZM276.274 48.3797C276.61 47.4938 277.474 46.8984 278.422 46.8984C279.688 46.8984 280.719 47.9288 280.719 49.1953V53.1036C279.188 51.504 276.831 51.1019 274.887 52.0297C276.939 46.6293 276.017 49.0542 276.274 48.3797ZM277.062 60.2578C275.046 60.2578 273.406 58.6176 273.406 56.6016C273.406 54.5432 275.093 52.9453 277.062 52.9453C279.079 52.9453 280.719 54.5855 280.719 56.6016C280.719 58.6176 279.079 60.2578 277.062 60.2578ZM290.938 60.2578C288.921 60.2578 287.281 58.6176 287.281 56.6016C287.281 54.5855 288.921 52.9453 290.938 52.9453C292.918 52.9453 294.594 54.5518 294.594 56.6016C294.594 58.6176 292.954 60.2578 290.938 60.2578Z"/>
</g>
<path fill="black" d="M248.43 86.654C247.59 86.654 246.895 86.5327 246.344 86.29C245.793 86.0473 245.373 85.716 245.084 85.296C244.804 84.8667 244.636 84.3813 244.58 83.84H246.26C246.335 84.2227 246.526 84.54 246.834 84.792C247.142 85.044 247.674 85.17 248.43 85.17C249.214 85.17 249.769 85.044 250.096 84.792C250.432 84.5307 250.6 84.2133 250.6 83.84C250.6 83.532 250.507 83.28 250.32 83.084C250.133 82.888 249.844 82.72 249.452 82.58C249.069 82.4307 248.579 82.2953 247.982 82.174C247.31 82.0247 246.741 81.838 246.274 81.614C245.807 81.3807 245.453 81.0727 245.21 80.69C244.977 80.3073 244.86 79.8173 244.86 79.22C244.86 78.7253 244.995 78.2773 245.266 77.876C245.537 77.4747 245.933 77.1527 246.456 76.91C246.988 76.6673 247.646 76.546 248.43 76.546C249.195 76.546 249.83 76.6627 250.334 76.896C250.847 77.12 251.239 77.4327 251.51 77.834C251.79 78.2353 251.953 78.6973 252 79.22H250.32C250.245 78.8653 250.054 78.5807 249.746 78.366C249.447 78.142 249.009 78.03 248.43 78.03C247.758 78.03 247.273 78.1467 246.974 78.38C246.685 78.6133 246.54 78.8933 246.54 79.22C246.54 79.668 246.727 80.004 247.1 80.228C247.473 80.452 248.047 80.6433 248.822 80.802C249.401 80.9233 249.905 81.068 250.334 81.236C250.763 81.3947 251.123 81.5907 251.412 81.824C251.701 82.048 251.916 82.328 252.056 82.664C252.205 82.9907 252.28 83.3827 252.28 83.84C252.28 84.3813 252.135 84.8667 251.846 85.296C251.566 85.716 251.141 86.0473 250.572 86.29C250.003 86.5327 249.289 86.654 248.43 86.654ZM254.105 86.5V79.08H255.645V86.5H254.105ZM254.875 78.24C254.586 78.24 254.348 78.1513 254.161 77.974C253.984 77.7873 253.895 77.5493 253.895 77.26C253.895 76.9707 253.984 76.7373 254.161 76.56C254.348 76.3733 254.586 76.28 254.875 76.28C255.165 76.28 255.398 76.3733 255.575 76.56C255.762 76.7373 255.855 76.9707 255.855 77.26C255.855 77.5493 255.762 77.7873 255.575 77.974C255.398 78.1513 255.165 78.24 254.875 78.24ZM260.819 89.454C260.053 89.454 259.442 89.3607 258.985 89.174C258.537 88.9873 258.205 88.726 257.991 88.39C257.785 88.0633 257.655 87.69 257.599 87.27H259.167C259.241 87.494 259.391 87.6993 259.615 87.886C259.848 88.0727 260.249 88.166 260.819 88.166C261.519 88.166 262.032 87.998 262.359 87.662C262.685 87.326 262.849 86.8453 262.849 86.22V85.17C262.615 85.562 262.298 85.884 261.897 86.136C261.495 86.388 261.015 86.514 260.455 86.514C259.829 86.514 259.279 86.374 258.803 86.094C258.336 85.814 257.972 85.3987 257.711 84.848C257.449 84.2973 257.319 83.6113 257.319 82.79V82.51C257.319 81.7447 257.449 81.096 257.711 80.564C257.972 80.032 258.336 79.626 258.803 79.346C259.279 79.066 259.825 78.926 260.441 78.926C261.057 78.926 261.584 79.066 262.023 79.346C262.471 79.626 262.783 79.9527 262.961 80.326V79.08H264.389V86.15C264.389 87.1953 264.09 88.0073 263.493 88.586C262.895 89.1647 262.004 89.454 260.819 89.454ZM260.805 85.17C261.169 85.17 261.505 85.0953 261.813 84.946C262.121 84.7873 262.368 84.5587 262.555 84.26C262.751 83.952 262.849 83.574 262.849 83.126V82.146C262.849 81.7447 262.751 81.4087 262.555 81.138C262.368 80.858 262.116 80.6433 261.799 80.494C261.491 80.3447 261.159 80.27 260.805 80.27C260.217 80.27 259.75 80.4567 259.405 80.83C259.059 81.194 258.887 81.754 258.887 82.51V82.79C258.887 83.5833 259.064 84.1807 259.419 84.582C259.773 84.974 260.235 85.17 260.805 85.17ZM266.352 86.5V76.7H267.892V80.256C268.004 80.0227 268.158 79.808 268.354 79.612C268.559 79.4067 268.811 79.2433 269.11 79.122C269.418 78.9913 269.782 78.926 270.202 78.926C271.107 78.926 271.789 79.1733 272.246 79.668C272.703 80.1533 272.932 80.8673 272.932 81.81V86.5H271.392V82.16C271.392 81.5347 271.261 81.0633 271 80.746C270.739 80.4287 270.309 80.27 269.712 80.27C269.283 80.27 268.933 80.3633 268.662 80.55C268.401 80.7273 268.205 80.9607 268.074 81.25C267.953 81.53 267.892 81.8333 267.892 82.16V86.5H266.352ZM277.699 86.57C277.139 86.57 276.681 86.4907 276.327 86.332C275.981 86.1733 275.725 85.926 275.557 85.59C275.398 85.2447 275.319 84.8013 275.319 84.26V80.396H274.269V79.08H275.319V77.4H276.859V79.08H278.749V80.396H276.859V84.05C276.859 84.4887 276.938 84.7967 277.097 84.974C277.265 85.142 277.582 85.226 278.049 85.226C278.329 85.226 278.609 85.212 278.889 85.184V86.5C278.711 86.5187 278.529 86.5327 278.343 86.542C278.156 86.5607 277.941 86.57 277.699 86.57ZM283.234 86.654C282.693 86.654 282.226 86.5933 281.834 86.472C281.442 86.3507 281.115 86.1873 280.854 85.982C280.602 85.7673 280.406 85.5247 280.266 85.254C280.135 84.9833 280.051 84.6987 280.014 84.4H281.554C281.619 84.6613 281.778 84.8807 282.03 85.058C282.282 85.226 282.683 85.31 283.234 85.31C283.85 85.31 284.284 85.226 284.536 85.058C284.788 84.89 284.914 84.6707 284.914 84.4C284.914 84.2413 284.853 84.092 284.732 83.952C284.62 83.812 284.424 83.6907 284.144 83.588C283.873 83.476 283.495 83.392 283.01 83.336C282.59 83.28 282.207 83.2007 281.862 83.098C281.517 82.986 281.223 82.8413 280.98 82.664C280.737 82.4867 280.551 82.272 280.42 82.02C280.289 81.7587 280.224 81.4553 280.224 81.11C280.224 80.7087 280.331 80.3447 280.546 80.018C280.77 79.6913 281.106 79.43 281.554 79.234C282.002 79.0287 282.562 78.926 283.234 78.926C283.887 78.926 284.419 79.0333 284.83 79.248C285.25 79.4533 285.567 79.7287 285.782 80.074C285.997 80.41 286.127 80.7787 286.174 81.18H284.634C284.559 80.8907 284.405 80.6667 284.172 80.508C283.948 80.3493 283.635 80.27 283.234 80.27C282.683 80.27 282.301 80.354 282.086 80.522C281.871 80.69 281.764 80.886 281.764 81.11C281.764 81.3527 281.881 81.5627 282.114 81.74C282.357 81.908 282.833 82.0293 283.542 82.104C283.981 82.16 284.377 82.244 284.732 82.356C285.087 82.468 285.39 82.6173 285.642 82.804C285.903 82.9813 286.104 83.2007 286.244 83.462C286.384 83.7233 286.454 84.036 286.454 84.4C286.454 84.82 286.333 85.2027 286.09 85.548C285.857 85.884 285.502 86.1547 285.026 86.36C284.55 86.556 283.953 86.654 283.234 86.654ZM291.215 86.654C290.561 86.654 289.959 86.5187 289.409 86.248C288.858 85.968 288.415 85.548 288.079 84.988C287.743 84.428 287.575 83.7187 287.575 82.86V82.58C287.575 81.7587 287.733 81.0773 288.051 80.536C288.377 79.9947 288.807 79.5933 289.339 79.332C289.871 79.0613 290.449 78.926 291.075 78.926C292.204 78.926 293.067 79.2293 293.665 79.836C294.271 80.4427 294.575 81.3107 294.575 82.44V83.224H289.143C289.161 83.728 289.269 84.134 289.465 84.442C289.661 84.75 289.913 84.974 290.221 85.114C290.529 85.2447 290.86 85.31 291.215 85.31C291.747 85.31 292.134 85.226 292.377 85.058C292.629 84.89 292.801 84.6707 292.895 84.4H294.435C294.285 85.1373 293.917 85.6973 293.329 86.08C292.75 86.4627 292.045 86.654 291.215 86.654ZM291.145 80.27C290.799 80.27 290.477 80.3307 290.179 80.452C289.88 80.5733 289.637 80.7647 289.451 81.026C289.264 81.2873 289.161 81.6373 289.143 82.076H293.035C293.025 81.6093 292.937 81.2453 292.769 80.984C292.601 80.7227 292.377 80.5407 292.097 80.438C291.817 80.326 291.499 80.27 291.145 80.27ZM299.336 86.654C298.682 86.654 298.08 86.5187 297.53 86.248C296.979 85.968 296.536 85.548 296.2 84.988C295.864 84.428 295.696 83.7187 295.696 82.86V82.58C295.696 81.7587 295.854 81.0773 296.172 80.536C296.498 79.9947 296.928 79.5933 297.46 79.332C297.992 79.0613 298.57 78.926 299.196 78.926C300.325 78.926 301.188 79.2293 301.786 79.836C302.392 80.4427 302.696 81.3107 302.696 82.44V83.224H297.264C297.282 83.728 297.39 84.134 297.586 84.442C297.782 84.75 298.034 84.974 298.342 85.114C298.65 85.2447 298.981 85.31 299.336 85.31C299.868 85.31 300.255 85.226 300.498 85.058C300.75 84.89 300.922 84.6707 301.016 84.4H302.556C302.406 85.1373 302.038 85.6973 301.45 86.08C300.871 86.4627 300.166 86.654 299.336 86.654ZM299.266 80.27C298.92 80.27 298.598 80.3307 298.3 80.452C298.001 80.5733 297.758 80.7647 297.572 81.026C297.385 81.2873 297.282 81.6373 297.264 82.076H301.156C301.146 81.6093 301.058 81.2453 300.89 80.984C300.722 80.7227 300.498 80.5407 300.218 80.438C299.938 80.326 299.62 80.27 299.266 80.27ZM304.377 86.5V79.08H305.917V86.5H304.377ZM305.147 78.24C304.858 78.24 304.62 78.1513 304.433 77.974C304.256 77.7873 304.167 77.5493 304.167 77.26C304.167 76.9707 304.256 76.7373 304.433 76.56C304.62 76.3733 304.858 76.28 305.147 76.28C305.436 76.28 305.67 76.3733 305.847 76.56C306.034 76.7373 306.127 76.9707 306.127 77.26C306.127 77.5493 306.034 77.7873 305.847 77.974C305.67 78.1513 305.436 78.24 305.147 78.24ZM308.01 86.5V79.08H309.438V80.326C309.616 79.9527 309.905 79.626 310.306 79.346C310.708 79.066 311.226 78.926 311.86 78.926C312.766 78.926 313.447 79.1733 313.904 79.668C314.362 80.1533 314.59 80.8673 314.59 81.81V86.5H313.05V82.16C313.05 81.5347 312.92 81.0633 312.658 80.746C312.397 80.4287 311.968 80.27 311.37 80.27C310.941 80.27 310.591 80.3633 310.32 80.55C310.059 80.7273 309.863 80.9607 309.732 81.25C309.611 81.53 309.55 81.8333 309.55 82.16V86.5H308.01ZM319.567 89.454C318.802 89.454 318.19 89.3607 317.733 89.174C317.285 88.9873 316.954 88.726 316.739 88.39C316.534 88.0633 316.403 87.69 316.347 87.27H317.915C317.99 87.494 318.139 87.6993 318.363 87.886C318.596 88.0727 318.998 88.166 319.567 88.166C320.267 88.166 320.78 87.998 321.107 87.662C321.434 87.326 321.597 86.8453 321.597 86.22V85.17C321.364 85.562 321.046 85.884 320.645 86.136C320.244 86.388 319.763 86.514 319.203 86.514C318.578 86.514 318.027 86.374 317.551 86.094C317.084 85.814 316.72 85.3987 316.459 84.848C316.198 84.2973 316.067 83.6113 316.067 82.79V82.51C316.067 81.7447 316.198 81.096 316.459 80.564C316.72 80.032 317.084 79.626 317.551 79.346C318.027 79.066 318.573 78.926 319.189 78.926C319.805 78.926 320.332 79.066 320.771 79.346C321.219 79.626 321.532 79.9527 321.709 80.326V79.08H323.137V86.15C323.137 87.1953 322.838 88.0073 322.241 88.586C321.644 89.1647 320.752 89.454 319.567 89.454ZM319.553 85.17C319.917 85.17 320.253 85.0953 320.561 84.946C320.869 84.7873 321.116 84.5587 321.303 84.26C321.499 83.952 321.597 83.574 321.597 83.126V82.146C321.597 81.7447 321.499 81.4087 321.303 81.138C321.116 80.858 320.864 80.6433 320.547 80.494C320.239 80.3447 319.908 80.27 319.553 80.27C318.965 80.27 318.498 80.4567 318.153 80.83C317.808 81.194 317.635 81.754 317.635 82.51V82.79C317.635 83.5833 317.812 84.1807 318.167 84.582C318.522 84.974 318.984 85.17 319.553 85.17Z" opacity="0.6"/>
</g>
</g>
<defs>
<filter color-interpolation-filters="sRGB" filterUnits="userSpaceOnUse" height="136" width="136" y="0" x="0" id="filter0_d_0_1">
<feFlood result="BackgroundImageFix" flood-opacity="0"/>
<feColorMatrix result="hardAlpha" values="0 0 0 0 0 0 0 0 0 0 0 0 0 0 0 0 0 0 127 0" type="matrix" in="SourceAlpha"/>
<feOffset dy="3"/>
<feGaussianBlur stdDeviation="10"/>
<feComposite operator="out" in2="hardAlpha"/>
<feColorMatrix values="0 0 0 0 0 0 0 0 0 0 0 0 0 0 0 0 0 0 0.08 0" type="matrix"/>
<feBlend result="effect1_dropShadow_0_1" in2="BackgroundImageFix" mode="normal"/>
<feBlend result="shape" in2="effect1_dropShadow_0_1" in="SourceGraphic" mode="normal"/>
</filter>
<filter color-interpolation-filters="sRGB" filterUnits="userSpaceOnUse" height="136" width="136" y="0" x="108" id="filter1_d_0_1">
<feFlood result="BackgroundImageFix" flood-opacity="0"/>
<feColorMatrix result="hardAlpha" values="0 0 0 0 0 0 0 0 0 0 0 0 0 0 0 0 0 0 127 0" type="matrix" in="SourceAlpha"/>
<feOffset dy="3"/>
<feGaussianBlur stdDeviation="10"/>
<feComposite operator="out" in2="hardAlpha"/>
<feColorMatrix values="0 0 0 0 0 0 0 0 0 0 0 0 0 0 0 0 0 0 0.08 0" type="matrix"/>
<feBlend result="effect1_dropShadow_0_1" in2="BackgroundImageFix" mode="normal"/>
<feBlend result="shape" in2="effect1_dropShadow_0_1" in="SourceGraphic" mode="normal"/>
</filter>
<filter color-interpolation-filters="sRGB" filterUnits="userSpaceOnUse" height="136" width="136" y="0" x="216" id="filter2_d_0_1">
<feFlood result="BackgroundImageFix" flood-opacity="0"/>
<feColorMatrix result="hardAlpha" values="0 0 0 0 0 0 0 0 0 0 0 0 0 0 0 0 0 0 127 0" type="matrix" in="SourceAlpha"/>
<feOffset dy="3"/>
<feGaussianBlur stdDeviation="10"/>
<feComposite operator="out" in2="hardAlpha"/>
<feColorMatrix values="0 0 0 0 0 0 0 0 0 0 0 0 0 0 0 0 0 0 0.08 0" type="matrix"/>
<feBlend result="effect1_dropShadow_0_1" in2="BackgroundImageFix" mode="normal"/>
<feBlend result="shape" in2="effect1_dropShadow_0_1" in="SourceGraphic" mode="normal"/>
</filter>
<clipPath id="clip0_0_1">
<rect transform="translate(-100 -761)" fill="white" height="3727" width="1440"/>
</clipPath>
<clipPath id="clip1_0_1">
<rect transform="matrix(0 -1 -1 0 80 64.5)" fill="white" height="24" width="24"/>
</clipPath>
<clipPath id="clip2_0_1">
<rect transform="translate(164 40.5)" fill="white" height="24" width="24"/>
</clipPath>
<clipPath id="clip3_0_1">
<rect transform="translate(272 40.5)" fill="white" height="24" width="24"/>
</clipPath>
</defs>
</svg>